<svg xmlns="http://www.w3.org/2000/svg" width="32" height="32" viewBox="0 0 32 32" fill="none">
  <!-- Purple circle background -->
  <circle cx="16" cy="16" r="16" fill="url(#purpleGradient)"/>
  
  <!-- QR code symbol in white -->
  <g fill="white">
    <!-- Top-left alignment pattern (larger for better visibility) -->
    <rect x="5" y="5" width="6" height="6"/>
    <rect x="7" y="7" width="2" height="2" fill="url(#purpleGradient)"/>
    
    <!-- Top-right alignment pattern -->
    <rect x="21" y="5" width="6" height="6"/>
    <rect x="23" y="7" width="2" height="2" fill="url(#purpleGradient)"/>
    
    <!-- Bottom-left alignment pattern -->
    <rect x="5" y="21" width="6" height="6"/>
    <rect x="7" y="23" width="2" height="2" fill="url(#purpleGradient)"/>
    
    <!-- QR code data pattern - more structured and recognizable -->
    <rect x="13" y="5" width="2" height="2"/>
    <rect x="17" y="5" width="2" height="2"/>
    <rect x="19" y="5" width="2" height="2"/>
    
    <rect x="11" y="7" width="2" height="2"/>
    <rect x="15" y="7" width="2" height="2"/>
    <rect x="19" y="7" width="2" height="2"/>
    
    <rect x="9" y="9" width="2" height="2"/>
    <rect x="13" y="9" width="2" height="2"/>
    <rect x="17" y="9" width="2" height="2"/>
    <rect x="21" y="9" width="2" height="2"/>
    
    <rect x="11" y="11" width="2" height="2"/>
    <rect x="15" y="11" width="2" height="2"/>
    <rect x="19" y="11" width="2" height="2"/>
    
    <rect x="9" y="13" width="2" height="2"/>
    <rect x="13" y="13" width="2" height="2"/>
    <rect x="17" y="13" width="2" height="2"/>
    <rect x="21" y="13" width="2" height="2"/>
    
    <rect x="11" y="15" width="2" height="2"/>
    <rect x="15" y="15" width="2" height="2"/>
    <rect x="19" y="15" width="2" height="2"/>
    
    <rect x="9" y="17" width="2" height="2"/>
    <rect x="13" y="17" width="2" height="2"/>
    <rect x="17" y="17" width="2" height="2"/>
    <rect x="21" y="17" width="2" height="2"/>
    
    <rect x="11" y="19" width="2" height="2"/>
    <rect x="15" y="19" width="2" height="2"/>
    <rect x="19" y="19" width="2" height="2"/>
    
    <rect x="13" y="21" width="2" height="2"/>
    <rect x="17" y="21" width="2" height="2"/>
    <rect x="19" y="21" width="2" height="2"/>
  </g>
  
  <!-- Gradient definitions -->
  <defs>
    <linearGradient id="purpleGradient" x1="0%" y1="0%" x2="100%" y2="100%">
      <stop offset="0%" stop-color="#8B5CF6"/>
      <stop offset="100%" stop-color="#7C3AED"/>
    </linearGradient>
  </defs>
</svg>
